RobotoFlex_XOPQ310.ufo
<glyph name="B" format="2">
  <advance width="2132"/>
  <unicode hex="0042"/>
  <anchor x="1040" y="0" name="bottom"/>
  <anchor x="1040" y="1456" name="top"/>
  <outline>
    <contour>
      <point x="170" y="0" type="line"/>
      <point x="170" y="1456" type="line"/>
      <point x="1372" y="1456" type="line" smooth="yes"/>
      <point x="1690" y="1456"/>
      <point x="1964" y="1261"/>
      <point x="1964" y="1106" type="qcurve" smooth="yes"/>
      <point x="1964" y="931"/>
      <point x="1793" y="788"/>
      <point x="1650" y="768" type="qcurve"/>
      <point x="1650" y="764" type="line"/>
      <point x="1819" y="742"/>
      <point x="2032" y="583"/>
      <point x="2032" y="420" type="qcurve" smooth="yes"/>
      <point x="2032" y="232"/>
      <point x="1756" y="0"/>
      <point x="1152" y="0" type="qcurve"/>
    </contour>
    <contour>
      <point x="790" y="158" type="line"/>
      <point x="1112" y="158" type="line" smooth="yes"/>
      <point x="1262" y="158"/>
      <point x="1402" y="300"/>
      <point x="1402" y="420" type="qcurve" smooth="yes"/>
      <point x="1402" y="540"/>
      <point x="1262" y="680"/>
      <point x="1112" y="680" type="qcurve" smooth="yes"/>
      <point x="490" y="680" type="line"/>
      <point x="490" y="836" type="line"/>
      <point x="1052" y="836" type="line" smooth="yes"/>
      <point x="1202" y="836"/>
      <point x="1334" y="960"/>
      <point x="1334" y="1070" type="qcurve" smooth="yes"/>
      <point x="1334" y="1180"/>
      <point x="1202" y="1298"/>
      <point x="1052" y="1298" type="qcurve" smooth="yes"/>
      <point x="790" y="1298" type="line"/>
    </contour>
  </outline>
</glyph>
<glyph name="D" format="2">
  <advance width="2244"/>
  <unicode hex="0044"/>
  <outline>
    <contour>
      <point x="170" y="0" type="line"/>
      <point x="170" y="1456" type="line"/>
      <point x="1310" y="1456" type="line" smooth="yes"/>
      <point x="1661" y="1456"/>
      <point x="2129" y="1086"/>
      <point x="2129" y="774" type="qcurve" smooth="yes"/>
      <point x="2129" y="682" type="line" smooth="yes"/>
      <point x="2129" y="370"/>
      <point x="1661" y="0"/>
      <point x="1310" y="0" type="qcurve" smooth="yes"/>
    </contour>
    <contour>
      <point x="790" y="158" type="line"/>
      <point x="1030" y="158" type="line" smooth="yes"/>
      <point x="1240" y="158"/>
      <point x="1489" y="436"/>
      <point x="1489" y="682" type="qcurve" smooth="yes"/>
      <point x="1489" y="774" type="line" smooth="yes"/>
      <point x="1489" y="1020"/>
      <point x="1240" y="1298"/>
      <point x="1030" y="1298" type="qcurve" smooth="yes"/>
      <point x="790" y="1298" type="line"/>
    </contour>
  </outline>
</glyph>
<glyph name="F" format="2">
  <advance width="1558"/>
  <unicode hex="0046"/>
  <outline>
    <contour>
      <point x="170" y="0" type="line"/>
      <point x="170" y="1456" type="line"/>
      <point x="1500" y="1456" type="line"/>
      <point x="1500" y="1298" type="line"/>
      <point x="790" y="1298" type="line"/>
      <point x="790" y="801" type="line"/>
      <point x="1401" y="801" type="line"/>
      <point x="1401" y="643" type="line"/>
      <point x="790" y="643" type="line"/>
      <point x="790" y="0" type="line"/>
    </contour>
  </outline>
</glyph>
<glyph name="G" format="2">
  <advance width="2281"/>
  <unicode hex="0047"/>
  <outline>
    <contour>
      <point x="115" y="712" type="qcurve" smooth="yes"/>
      <point x="115" y="734" type="line" smooth="yes"/>
      <point x="115" y="1070"/>
      <point x="695" y="1486"/>
      <point x="1166" y="1486" type="qcurve"/>
      <point x="1594" y="1486"/>
      <point x="2091" y="1221"/>
      <point x="2111" y="1040" type="qcurve" smooth="yes"/>
      <point x="2112" y="980" type="line"/>
      <point x="1512" y="980" type="line"/>
      <point x="1511" y="1040" type="line" smooth="yes"/>
      <point x="1509" y="1140"/>
      <point x="1354" y="1322"/>
      <point x="1156" y="1322" type="qcurve" smooth="yes"/>
      <point x="958" y="1322"/>
      <point x="755" y="1020"/>
      <point x="755" y="734" type="qcurve" smooth="yes"/>
      <point x="755" y="712" type="line" smooth="yes"/>
      <point x="755" y="426"/>
      <point x="986" y="134"/>
      <point x="1196" y="134" type="qcurve" smooth="yes"/>
      <point x="1307" y="134"/>
      <point x="1469" y="180"/>
      <point x="1542" y="230" type="qcurve"/>
      <point x="1542" y="570" type="line"/>
      <point x="1176" y="570" type="line"/>
      <point x="1176" y="728" type="line"/>
      <point x="2152" y="728" type="line"/>
      <point x="2152" y="160" type="line"/>
      <point x="2058" y="90"/>
      <point x="1539" y="-30"/>
      <point x="1196" y="-30" type="qcurve"/>
      <point x="690" y="-30"/>
      <point x="115" y="376"/>
    </contour>
  </outline>
</glyph>
<glyph name="L" format="2">
  <advance width="1534"/>
  <unicode hex="004C"/>
  <anchor x="720" y="0" name="bottom"/>
  <anchor x="1145" y="728" name="center"/>
  <anchor x="474" y="1456" name="top"/>
  <anchor x="1195" y="1052" name="topright"/>
  <outline>
    <contour>
      <point x="170" y="0" type="line"/>
      <point x="170" y="1456" type="line"/>
      <point x="790" y="1456" type="line"/>
      <point x="790" y="158" type="line"/>
      <point x="1480" y="158" type="line"/>
      <point x="1480" y="0" type="line"/>
    </contour>
  </outline>
</glyph>
<glyph name="R" format="2">
  <advance width="2101"/>
  <unicode hex="0052"/>
  <outline>
    <contour>
      <point x="170" y="0" type="line"/>
      <point x="170" y="1456" type="line"/>
      <point x="1352" y="1456" type="line" smooth="yes"/>
      <point x="1662" y="1456"/>
      <point x="1988" y="1222"/>
      <point x="1988" y="1028" type="qcurve" smooth="yes"/>
      <point x="1988" y="834"/>
      <point x="1662" y="594"/>
      <point x="1352" y="594" type="qcurve" smooth="yes"/>
      <point x="790" y="594" type="line"/>
      <point x="790" y="0" type="line"/>
    </contour>
    <contour>
      <point x="790" y="750" type="line"/>
      <point x="1072" y="750" type="line" smooth="yes"/>
      <point x="1238" y="750"/>
      <point x="1358" y="912"/>
      <point x="1358" y="1028" type="qcurve" smooth="yes"/>
      <point x="1358" y="1144"/>
      <point x="1238" y="1300"/>
      <point x="1072" y="1300" type="qcurve" smooth="yes"/>
      <point x="790" y="1300" type="line"/>
    </contour>
    <contour>
      <point x="1401" y="0" type="line"/>
      <point x="1057" y="645" type="line"/>
      <point x="1673" y="713" type="line"/>
      <point x="2061" y="0" type="line"/>
    </contour>
  </outline>
</glyph>
<glyph name="T" format="2">
  <advance width="1604"/>
  <unicode hex="0054"/>
  <anchor x="804" y="0" name="bottom"/>
  <anchor x="804" y="728" name="center"/>
  <anchor x="804" y="1456" name="top"/>
  <outline>
    <contour>
      <point x="492" y="0" type="line"/>
      <point x="492" y="1378" type="line"/>
      <point x="1112" y="1378" type="line"/>
      <point x="1112" y="0" type="line"/>
    </contour>
    <contour>
      <point x="24" y="1298" type="line"/>
      <point x="24" y="1456" type="line"/>
      <point x="1580" y="1456" type="line"/>
      <point x="1580" y="1298" type="line"/>
    </contour>
  </outline>
</glyph>
<glyph name="Z" format="2">
  <advance width="1466"/>
  <unicode hex="005A"/>
  <outline>
    <contour>
      <point x="65" y="0" type="line"/>
      <point x="65" y="290" type="line"/>
      <point x="756" y="1298" type="line"/>
      <point x="72" y="1298" type="line"/>
      <point x="72" y="1456" type="line"/>
      <point x="1375" y="1456" type="line"/>
      <point x="1375" y="1173" type="line"/>
      <point x="674" y="158" type="line"/>
      <point x="1400" y="158" type="line"/>
      <point x="1400" y="0" type="line"/>
    </contour>
  </outline>
</glyph>
<glyph name="n" format="2">
  <advance width="1446"/>
  <unicode hex="006E"/>
  <anchor x="719" y="0" name="bottom"/>
  <anchor x="719" y="1052" name="top"/>
  <outline>
    <contour>
      <point x="148" y="0" type="line"/>
      <point x="148" y="1052" type="line"/>
      <point x="470" y="1052" type="line"/>
      <point x="488" y="748" type="line"/>
      <point x="488" y="0" type="line"/>
    </contour>
    <contour>
      <point x="345" y="483" type="qcurve"/>
      <point x="345" y="752" type="line"/>
      <point x="470" y="931"/>
      <point x="693" y="1072"/>
      <point x="846" y="1072" type="qcurve" smooth="yes"/>
      <point x="1059" y="1072"/>
      <point x="1308" y="891"/>
      <point x="1308" y="679" type="qcurve" smooth="yes"/>
      <point x="1308" y="0" type="line"/>
      <point x="968" y="0" type="line"/>
      <point x="968" y="681" type="line" smooth="yes"/>
      <point x="968" y="807"/>
      <point x="855" y="916"/>
      <point x="751" y="916" type="qcurve" smooth="yes"/>
      <point x="636" y="916"/>
      <point x="472" y="751"/>
    </contour>
  </outline>
</glyph>
<glyph name="AE" format="2">
  <advance width="2332"/>
  <unicode hex="00C6"/>
  <anchor x="1193" y="1456" name="top"/>
  <outline>
    <contour>
      <point x="-15" y="0" type="line"/>
      <point x="866" y="1456" type="line"/>
      <point x="2254" y="1456" type="line"/>
      <point x="2254" y="1298" type="line"/>
      <point x="1540" y="1298" type="line"/>
      <point x="1540" y="158" type="line"/>
      <point x="2264" y="158" type="line"/>
      <point x="2264" y="0" type="line"/>
      <point x="930" y="0" type="line"/>
      <point x="930" y="1238" type="line"/>
      <point x="212" y="0" type="line"/>
    </contour>
    <contour>
      <point x="1240" y="672" type="line"/>
      <point x="1240" y="830" type="line"/>
      <point x="2162" y="830" type="line"/>
      <point x="2162" y="672" type="line"/>
    </contour>
    <contour>
      <point x="302" y="353" type="line"/>
      <point x="402" y="528" type="line"/>
      <point x="1273" y="528" type="line"/>
      <point x="1273" y="353" type="line"/>
    </contour>
  </outline>
</glyph>
<glyph name="OE" format="2">
  <advance width="2741"/>
  <unicode hex="0152"/>
  <outline>
    <contour>
      <point x="1060" y="-21" type="qcurve" smooth="yes"/>
      <point x="675" y="-21"/>
      <point x="115" y="340"/>
      <point x="115" y="712" type="qcurve" smooth="yes"/>
      <point x="115" y="742" type="line" smooth="yes"/>
      <point x="115" y="1105"/>
      <point x="671" y="1477"/>
      <point x="1109" y="1477" type="qcurve" smooth="yes"/>
      <point x="1149" y="1477"/>
      <point x="1329" y="1464"/>
      <point x="1409" y="1456" type="qcurve"/>
      <point x="2663" y="1456" type="line"/>
      <point x="2663" y="1298" type="line"/>
      <point x="1941" y="1298" type="line"/>
      <point x="1941" y="157" type="line"/>
      <point x="2673" y="157" type="line"/>
      <point x="2673" y="0" type="line"/>
      <point x="1409" y="0" type="line"/>
      <point x="1329" y="-7"/>
      <point x="1151" y="-21"/>
    </contour>
    <contour>
      <point x="1160" y="128" type="qcurve" smooth="yes"/>
      <point x="1213" y="128"/>
      <point x="1293" y="137"/>
      <point x="1331" y="143" type="qcurve"/>
      <point x="1331" y="1310" type="line"/>
      <point x="1279" y="1317"/>
      <point x="1184" y="1325"/>
      <point x="1162" y="1325" type="qcurve" smooth="yes"/>
      <point x="985" y="1325"/>
      <point x="755" y="1000"/>
      <point x="755" y="744" type="qcurve" smooth="yes"/>
      <point x="755" y="712" type="line" smooth="yes"/>
      <point x="755" y="448"/>
      <point x="988" y="128"/>
    </contour>
    <contour>
      <point x="1641" y="673" type="line"/>
      <point x="1641" y="830" type="line"/>
      <point x="2571" y="830" type="line"/>
      <point x="2571" y="673" type="line"/>
    </contour>
  </outline>
</glyph>
<glyph name="commaaccentturned" format="2">
  <advance width="1024"/>
  <unicode hex="02BB"/>
  <outline>
    <contour>
      <point x="747.58" y="1663.0" type="line"/>
      <point x="659.58" y="1291.0" type="line"/>
      <point x="457.58" y="1289.0" type="line"/>
      <point x="584.58" y="1666.0" type="line"/>
    </contour>
  </outline>
</glyph>
<glyph name="Sigma" format="2">
  <advance width="1600"/>
  <unicode hex="03A3"/>
  <outline>
    <contour>
      <point x="65" y="0" type="line"/>
      <point x="65" y="121" type="line"/>
      <point x="570" y="748" type="line"/>
      <point x="570" y="702" type="line"/>
      <point x="77" y="1304" type="line"/>
      <point x="77" y="1456" type="line"/>
      <point x="1502" y="1456" type="line"/>
      <point x="1502" y="1299" type="line"/>
      <point x="706" y="1299" type="line"/>
      <point x="717" y="1322" type="line"/>
      <point x="1186" y="756" type="line"/>
      <point x="1186" y="716" type="line"/>
      <point x="719" y="135" type="line"/>
      <point x="708" y="158" type="line"/>
      <point x="1534" y="158" type="line"/>
      <point x="1534" y="0" type="line"/>
    </contour>
  </outline>
</glyph>
<glyph name="Phi" format="2">
  <advance width="3025"/>
  <unicode hex="03A6"/>
  <outline>
    <contour>
      <point x="1815" y="1476" type="line"/>
      <point x="1815" y="1283" type="line"/>
      <point x="2173" y="1283" type="line" smooth="yes"/>
      <point x="2539" y="1283"/>
      <point x="2920" y="991"/>
      <point x="2920" y="738" type="qcurve" smooth="yes"/>
      <point x="2920" y="485"/>
      <point x="2539" y="194"/>
      <point x="2173" y="194" type="qcurve" smooth="yes"/>
      <point x="1815" y="194" type="line"/>
      <point x="1815" y="-20" type="line"/>
      <point x="1210" y="-20" type="line"/>
      <point x="1210" y="194" type="line"/>
      <point x="854" y="194" type="line" smooth="yes"/>
      <point x="486" y="194"/>
      <point x="105" y="486"/>
      <point x="105" y="739" type="qcurve" smooth="yes"/>
      <point x="105" y="992"/>
      <point x="486" y="1283"/>
      <point x="854" y="1283" type="qcurve" smooth="yes"/>
      <point x="1210" y="1283" type="line"/>
      <point x="1210" y="1476" type="line"/>
    </contour>
    <contour>
      <point x="1873" y="1132" type="qcurve" smooth="yes"/>
      <point x="1815" y="1132" type="line"/>
      <point x="1815" y="345" type="line"/>
      <point x="1873" y="345" type="line" smooth="yes"/>
      <point x="2124" y="345"/>
      <point x="2305" y="545"/>
      <point x="2305" y="736" type="qcurve" smooth="yes"/>
      <point x="2305" y="925"/>
      <point x="2124" y="1132"/>
    </contour>
    <contour>
      <point x="1152" y="1132" type="line" smooth="yes"/>
      <point x="901" y="1132"/>
      <point x="720" y="932"/>
      <point x="720" y="741" type="qcurve" smooth="yes"/>
      <point x="720" y="552"/>
      <point x="901" y="345"/>
      <point x="1152" y="345" type="qcurve" smooth="yes"/>
      <point x="1210" y="345" type="line"/>
      <point x="1210" y="1132" type="line"/>
    </contour>
  </outline>
</glyph>
<glyph name="beta" format="2">
  <advance width="1512"/>
  <unicode hex="03B2"/>
  <outline>
    <contour>
      <point x="148" y="-416" type="line"/>
      <point x="148" y="1058" type="line" smooth="yes"/>
      <point x="148" y="1311"/>
      <point x="497" y="1556"/>
      <point x="745" y="1556" type="qcurve" smooth="yes"/>
      <point x="1039" y="1556"/>
      <point x="1336" y="1350"/>
      <point x="1336" y="1155" type="qcurve"/>
      <point x="1336" y="1026"/>
      <point x="1196" y="859"/>
      <point x="1092" y="834" type="qcurve"/>
      <point x="1092" y="850" type="line"/>
      <point x="1245" y="830"/>
      <point x="1427" y="630"/>
      <point x="1427" y="463" type="qcurve" smooth="yes"/>
      <point x="1427" y="243"/>
      <point x="1111" y="-21"/>
      <point x="901" y="-21" type="qcurve" smooth="yes"/>
      <point x="709" y="-21"/>
      <point x="447" y="148"/>
      <point x="385" y="253" type="qcurve"/>
      <point x="385" y="459" type="line"/>
      <point x="468" y="307"/>
      <point x="673" y="132"/>
      <point x="805" y="132" type="qcurve" smooth="yes"/>
      <point x="938" y="132"/>
      <point x="1066" y="314"/>
      <point x="1066" y="462" type="qcurve" smooth="yes"/>
      <point x="1066" y="610"/>
      <point x="913" y="765"/>
      <point x="720" y="765" type="qcurve" smooth="yes"/>
      <point x="344" y="765" type="line"/>
      <point x="344" y="907" type="line"/>
      <point x="721" y="907" type="line" smooth="yes"/>
      <point x="863" y="907"/>
      <point x="989" y="1037"/>
      <point x="989" y="1156" type="qcurve" smooth="yes"/>
      <point x="989" y="1269"/>
      <point x="879" y="1404"/>
      <point x="745" y="1404" type="qcurve" smooth="yes"/>
      <point x="612" y="1404"/>
      <point x="484" y="1236"/>
      <point x="484" y="1065" type="qcurve" smooth="yes"/>
      <point x="484" y="-416" type="line"/>
    </contour>
  </outline>
</glyph>
<glyph name="kappa" format="2">
  <advance width="1327"/>
  <unicode hex="03BA"/>
  <outline>
    <contour>
      <point x="905" y="0" type="line"/>
      <point x="496" y="477" type="line"/>
      <point x="748" y="663" type="line"/>
      <point x="1342" y="0" type="line"/>
    </contour>
    <contour>
      <point x="241" y="610" type="line"/>
      <point x="575" y="610" type="line"/>
      <point x="960" y="1052" type="line"/>
      <point x="1178" y="1052" type="line"/>
      <point x="663" y="465" type="line"/>
      <point x="241" y="465" type="line"/>
    </contour>
    <contour>
      <point x="489" y="1052" type="line"/>
      <point x="489" y="0" type="line"/>
      <point x="148" y="0" type="line"/>
      <point x="148" y="1052" type="line"/>
    </contour>
  </outline>
</glyph>
<glyph name="Kaisymbol" format="2">
  <advance width="2016"/>
  <unicode hex="03CF"/>
  <outline>
    <contour>
      <point x="170" y="0" type="line"/>
      <point x="170" y="1456" type="line"/>
      <point x="782" y="1456" type="line"/>
      <point x="782" y="0" type="line"/>
    </contour>
    <contour>
      <point x="625" y="142" type="line"/>
      <point x="625" y="379" type="line"/>
      <point x="1592" y="1456" type="line"/>
      <point x="1826" y="1456" type="line"/>
      <point x="1128" y="693" type="line"/>
    </contour>
    <contour>
      <point x="1389" y="-91" type="line"/>
      <point x="913" y="558" type="line"/>
      <point x="1290" y="969" type="line"/>
      <point x="1938" y="127" type="line"/>
      <point x="1064" y="-589" type="line"/>
      <point x="949" y="-451" type="line"/>
    </contour>
  </outline>
</glyph>
<glyph name="Nje" format="2">
  <advance width="3299"/>
  <unicode hex="040A"/>
  <outline>
    <contour>
      <point x="170" y="0" type="line"/>
      <point x="170" y="1456" type="line"/>
      <point x="779" y="1456" type="line"/>
      <point x="779" y="870" type="line"/>
      <point x="1413" y="870" type="line"/>
      <point x="1413" y="1456" type="line"/>
      <point x="2023" y="1456" type="line"/>
      <point x="2023" y="870" type="line"/>
      <point x="2623" y="870" type="line" smooth="yes"/>
      <point x="2920" y="870"/>
      <point x="3239" y="633"/>
      <point x="3239" y="437" type="qcurve" smooth="yes"/>
      <point x="3239" y="241"/>
      <point x="2920" y="0"/>
      <point x="2623" y="0" type="qcurve" smooth="yes"/>
      <point x="1413" y="0" type="line"/>
      <point x="1413" y="712" type="line"/>
      <point x="779" y="712" type="line"/>
      <point x="779" y="0" type="line"/>
    </contour>
    <contour>
      <point x="2023" y="712" type="line"/>
      <point x="2023" y="158" type="line"/>
      <point x="2313" y="158" type="line" smooth="yes"/>
      <point x="2483" y="158"/>
      <point x="2619" y="320"/>
      <point x="2619" y="437" type="qcurve" smooth="yes"/>
      <point x="2619" y="554"/>
      <point x="2483" y="712"/>
      <point x="2313" y="712" type="qcurve" smooth="yes"/>
    </contour>
  </outline>
</glyph>
<glyph name="Tshe" format="2">
  <advance width="2443"/>
  <unicode hex="040B"/>
  <guideline x="568" y="683" angle="90" identifier="juO2xYoEN4"/>
  <outline>
    <contour>
      <point x="1734" y="0" type="line"/>
      <point x="1734" y="394" type="line" smooth="yes"/>
      <point x="1734" y="572"/>
      <point x="1566" y="692"/>
      <point x="1373" y="692" type="qcurve" smooth="yes"/>
      <point x="1292" y="692"/>
      <point x="951" y="670"/>
      <point x="810" y="637" type="qcurve"/>
      <point x="810" y="795" type="line"/>
      <point x="946" y="828"/>
      <point x="1300" y="850"/>
      <point x="1427" y="850" type="qcurve" smooth="yes"/>
      <point x="1870" y="850"/>
      <point x="2339" y="627"/>
      <point x="2333" y="391" type="qcurve" smooth="yes"/>
      <point x="2333" y="0" type="line"/>
    </contour>
    <contour>
      <point x="24" y="1298" type="line"/>
      <point x="24" y="1456" type="line"/>
      <point x="1568" y="1456" type="line"/>
      <point x="1568" y="1298" type="line"/>
      <point x="1081" y="1298" type="line"/>
      <point x="1081" y="0" type="line"/>
      <point x="472" y="0" type="line"/>
      <point x="472" y="1298" type="line"/>
    </contour>
  </outline>
</glyph>
<glyph name="Dzhe" format="2">
  <advance width="2273"/>
  <unicode hex="040F"/>
  <outline>
    <contour>
      <point x="1283" y="0" type="line"/>
      <point x="1283" y="-290" type="line"/>
      <point x="991" y="-290" type="line"/>
      <point x="991" y="0" type="line"/>
      <point x="170" y="0" type="line"/>
      <point x="170" y="1456" type="line"/>
      <point x="780" y="1456" type="line"/>
      <point x="780" y="158" type="line"/>
      <point x="1493" y="158" type="line"/>
      <point x="1493" y="1456" type="line"/>
      <point x="2103" y="1456" type="line"/>
      <point x="2103" y="0" type="line"/>
    </contour>
  </outline>
</glyph>
<glyph name="De" format="2">
  <advance width="2400"/>
  <unicode hex="0414"/>
  <outline>
    <contour>
      <point x="2068" y="-290" type="line"/>
      <point x="2068" y="0" type="line"/>
      <point x="312" y="0" type="line"/>
      <point x="312" y="-290" type="line"/>
      <point x="10" y="-290" type="line"/>
      <point x="10" y="158" type="line"/>
      <point x="2370" y="158" type="line"/>
      <point x="2370" y="-290" type="line"/>
    </contour>
    <contour>
      <point x="310" y="1456" type="line"/>
      <point x="2090" y="1456" type="line"/>
      <point x="2090" y="0" type="line"/>
      <point x="1480" y="0" type="line"/>
      <point x="1480" y="1298" type="line"/>
      <point x="889" y="1298" type="line"/>
      <point x="848" y="659" type="line" smooth="yes"/>
      <point x="834" y="447"/>
      <point x="784" y="205"/>
      <point x="759" y="139" type="qcurve"/>
      <point x="146" y="139" type="line"/>
      <point x="186" y="209"/>
      <point x="245" y="457"/>
      <point x="258" y="657" type="qcurve" smooth="yes"/>
    </contour>
  </outline>
</glyph>
<glyph name="Icyr" format="2">
  <advance width="2303"/>
  <unicode hex="0418"/>
  <guideline x="739" y="930" angle="90" identifier="jpSOnFR6u4"/>
  <outline>
    <contour>
      <point x="2133" y="0" type="line"/>
      <point x="1524" y="0" type="line"/>
      <point x="1524" y="1063" type="line" smooth="yes"/>
      <point x="1524" y="1093"/>
      <point x="1525" y="1168"/>
      <point x="1526" y="1198" type="qcurve"/>
      <point x="1519" y="1198" type="line"/>
      <point x="1505" y="1173"/>
      <point x="1470" y="1114"/>
      <point x="1451" y="1083" type="qcurve" smooth="yes"/>
      <point x="785" y="0" type="line"/>
      <point x="170" y="0" type="line"/>
      <point x="170" y="1456" type="line"/>
      <point x="770" y="1456" type="line"/>
      <point x="770" y="393" type="line" smooth="yes"/>
      <point x="770" y="363"/>
      <point x="769" y="288"/>
      <point x="768" y="258" type="qcurve"/>
      <point x="776" y="258" type="line"/>
      <point x="788" y="283"/>
      <point x="824" y="342"/>
      <point x="843" y="373" type="qcurve" smooth="yes"/>
      <point x="1509" y="1456" type="line"/>
      <point x="2133" y="1456" type="line"/>
    </contour>
  </outline>
</glyph>
<glyph name="Ucyr" format="2">
  <advance width="1638"/>
  <unicode hex="0423"/>
  <outline>
    <contour>
      <point x="152" y="192" type="line"/>
      <point x="187" y="182"/>
      <point x="438" y="138"/>
      <point x="573" y="138" type="qcurve" smooth="yes"/>
      <point x="708" y="138"/>
      <point x="885" y="224"/>
      <point x="954" y="360" type="qcurve"/>
      <point x="554" y="360" type="line"/>
      <point x="15" y="1456" type="line"/>
      <point x="633" y="1456" type="line"/>
      <point x="980" y="720" type="line" smooth="yes"/>
      <point x="1005" y="668"/>
      <point x="1031" y="615"/>
      <point x="1047" y="579" type="qcurve"/>
      <point x="1053" y="579" type="line"/>
      <point x="1068" y="615"/>
      <point x="1089" y="667"/>
      <point x="1112" y="720" type="qcurve" smooth="yes"/>
      <point x="1427" y="1456" type="line"/>
      <point x="1623" y="1456" type="line"/>
      <point x="1156" y="394" type="line" smooth="yes"/>
      <point x="1046" y="144"/>
      <point x="774" y="-30"/>
      <point x="570" y="-30" type="qcurve" smooth="yes"/>
      <point x="393" y="-30"/>
      <point x="187" y="15"/>
      <point x="152" y="28" type="qcurve"/>
    </contour>
  </outline>
</glyph>
<glyph name="Tse" format="2">
  <advance width="2338"/>
  <unicode hex="0426"/>
  <outline>
    <contour>
      <point x="1986" y="-290" type="line"/>
      <point x="1986" y="0" type="line"/>
      <point x="170" y="0" type="line"/>
      <point x="170" y="1456" type="line"/>
      <point x="782" y="1456" type="line"/>
      <point x="782" y="158" type="line"/>
      <point x="1496" y="158" type="line"/>
      <point x="1496" y="1456" type="line"/>
      <point x="2108" y="1456" type="line"/>
      <point x="2108" y="158" type="line"/>
      <point x="2308" y="158" type="line"/>
      <point x="2308" y="-290" type="line"/>
    </contour>
  </outline>
</glyph>
<glyph name="Sha" format="2">
  <advance width="3200"/>
  <unicode hex="0428"/>
  <outline>
    <contour>
      <point x="170" y="1456" type="line"/>
      <point x="778" y="1456" type="line"/>
      <point x="778" y="158" type="line"/>
      <point x="1292" y="158" type="line"/>
      <point x="1292" y="1456" type="line"/>
      <point x="1908" y="1456" type="line"/>
      <point x="1908" y="158" type="line"/>
      <point x="2422" y="158" type="line"/>
      <point x="2422" y="1456" type="line"/>
      <point x="3030" y="1456" type="line"/>
      <point x="3030" y="0" type="line"/>
      <point x="170" y="0" type="line"/>
    </contour>
  </outline>
</glyph>
<glyph name="hard" format="2">
  <advance width="1531"/>
  <unicode hex="044A"/>
  <outline>
    <contour>
      <point x="320" y="0" type="line"/>
      <point x="320" y="907" type="line"/>
      <point x="30" y="907" type="line"/>
      <point x="30" y="1052" type="line"/>
      <point x="661.0" y="1052.0" type="line"/>
      <point x="661.0" y="145.0" type="line"/>
      <point x="903.0" y="145.0" type="line" smooth="yes"/>
      <point x="1028.0" y="145.0"/>
      <point x="1129.0" y="260.0"/>
      <point x="1129.0" y="348.0" type="qcurve" smooth="yes"/>
      <point x="1129.0" y="435.0"/>
      <point x="1028.0" y="547.0"/>
      <point x="903.0" y="547.0" type="qcurve" smooth="yes"/>
      <point x="491" y="547" type="line"/>
      <point x="491" y="692" type="line"/>
      <point x="943.0" y="692.0" type="line" smooth="yes"/>
      <point x="1217" y="692"/>
      <point x="1471.0" y="514.0"/>
      <point x="1471" y="348.0" type="qcurve" smooth="yes"/>
      <point x="1471" y="182"/>
      <point x="1220.0" y="0.0"/>
      <point x="946" y="0.0" type="qcurve" smooth="yes"/>
    </contour>
  </outline>
</glyph>
<glyph name="Gheup" format="2">
  <advance width="1605"/>
  <unicode hex="0490"/>
  <outline>
    <contour>
      <point x="170" y="0" type="line"/>
      <point x="170" y="1456" type="line"/>
      <point x="1268" y="1456" type="line"/>
      <point x="1268" y="1746" type="line"/>
      <point x="1580" y="1746" type="line"/>
      <point x="1580" y="1298" type="line"/>
      <point x="790" y="1298" type="line"/>
      <point x="790" y="0" type="line"/>
    </contour>
  </outline>
</glyph>
<glyph name="Kaverticalstrokecyr" format="2">
  <advance width="2663"/>
  <unicode hex="049C"/>
  <guideline x="637" y="675" angle="90" identifier="5CJVZV5P4J"/>
  <outline>
    <contour>
      <point x="170" y="0" type="line"/>
      <point x="170" y="1456" type="line"/>
      <point x="779" y="1456" type="line"/>
      <point x="779" y="0" type="line"/>
    </contour>
    <contour>
      <point x="2054" y="0" type="line"/>
      <point x="1455" y="765" type="line"/>
      <point x="1957" y="924" type="line"/>
      <point x="2683" y="0" type="line"/>
    </contour>
    <contour>
      <point x="1234" y="830" type="line"/>
      <point x="1654" y="830" type="line"/>
      <point x="2229" y="1456" type="line"/>
      <point x="2439" y="1456" type="line"/>
      <point x="1732" y="672" type="line"/>
      <point x="1234" y="672" type="line"/>
    </contour>
    <contour>
      <point x="969" y="300" type="line"/>
      <point x="969" y="1156" type="line"/>
      <point x="1479" y="1156" type="line"/>
      <point x="1479" y="300" type="line"/>
    </contour>
  </outline>
</glyph>
<glyph name="Endescender" format="2">
  <advance width="2378"/>
  <unicode hex="04A2"/>
  <outline>
    <contour>
      <point x="170" y="0" type="line"/>
      <point x="170" y="1456" type="line"/>
      <point x="790" y="1456" type="line"/>
      <point x="790" y="0" type="line"/>
    </contour>
    <contour>
      <point x="490" y="672" type="line"/>
      <point x="490" y="830" type="line"/>
      <point x="1844" y="830" type="line"/>
      <point x="1844" y="672" type="line"/>
    </contour>
    <contour>
      <point x="1524" y="0" type="line"/>
      <point x="1524" y="1456" type="line"/>
      <point x="2144" y="1456" type="line"/>
      <point x="2144" y="0" type="line"/>
    </contour>
    <contour>
      <point x="2176" y="-290" type="line"/>
      <point x="2176" y="0" type="line"/>
      <point x="2068" y="0" type="line"/>
      <point x="2068" y="158" type="line"/>
      <point x="2348" y="158" type="line"/>
      <point x="2348" y="-290" type="line"/>
    </contour>
  </outline>
</glyph>
<glyph name="endescender" format="2">
  <advance width="1440"/>
  <unicode hex="04A3"/>
  <outline>
    <contour>
      <point x="148" y="0" type="line"/>
      <point x="148" y="1052" type="line"/>
      <point x="489" y="1052" type="line"/>
      <point x="489" y="0" type="line"/>
    </contour>
    <contour>
      <point x="959" y="0" type="line"/>
      <point x="959" y="1052" type="line"/>
      <point x="1300" y="1052" type="line"/>
      <point x="1300" y="0" type="line"/>
    </contour>
    <contour>
      <point x="339" y="465" type="line"/>
      <point x="339" y="610" type="line"/>
      <point x="1139" y="610" type="line"/>
      <point x="1139" y="465" type="line"/>
    </contour>
    <contour>
      <point x="1307" y="-270" type="line"/>
      <point x="1307" y="0" type="line"/>
      <point x="1226" y="0" type="line"/>
      <point x="1226" y="145" type="line"/>
      <point x="1475" y="145" type="line"/>
      <point x="1475" y="-270" type="line"/>
    </contour>
  </outline>
</glyph>
<glyph name="Tedescender-cy" format="2">
  <advance width="1604"/>
  <unicode hex="04AC"/>
  <outline>
    <contour>
      <point x="1123" y="-290" type="line"/>
      <point x="1123" y="0" type="line"/>
      <point x="1015" y="0" type="line"/>
      <point x="1015" y="158" type="line"/>
      <point x="1295" y="158" type="line"/>
      <point x="1295" y="-290" type="line"/>
    </contour>
    <contour>
      <point x="492" y="0" type="line"/>
      <point x="492" y="1378" type="line"/>
      <point x="1112" y="1378" type="line"/>
      <point x="1112" y="0" type="line"/>
    </contour>
    <contour>
      <point x="24" y="1298" type="line"/>
      <point x="24" y="1456" type="line"/>
      <point x="1580" y="1456" type="line"/>
      <point x="1580" y="1298" type="line"/>
    </contour>
  </outline>
</glyph>
<glyph name="tedescender-cy" format="2">
  <advance width="1061"/>
  <unicode hex="04AD"/>
  <outline>
    <contour>
      <point x="360" y="0" type="line"/>
      <point x="360" y="977" type="line"/>
      <point x="701" y="977" type="line"/>
      <point x="701" y="0" type="line"/>
    </contour>
    <contour>
      <point x="30" y="907" type="line"/>
      <point x="30" y="1052" type="line"/>
      <point x="1031" y="1052" type="line"/>
      <point x="1031" y="907" type="line"/>
    </contour>
    <contour>
      <point x="563" y="-270" type="line"/>
      <point x="563" y="0" type="line"/>
      <point x="482" y="0" type="line"/>
      <point x="482" y="145" type="line"/>
      <point x="731" y="145" type="line"/>
      <point x="731" y="-270" type="line"/>
    </contour>
  </outline>
</glyph>
<glyph name="Obarcyr" format="2">
  <advance width="2352"/>
  <unicode hex="04E8"/>
  <guideline x="212" y="786" angle="90" identifier="UtNSclIhRG"/>
  <guideline x="1248" y="730" angle="90" identifier="hwb5F7EShy"/>
  <outline>
    <contour>
      <point x="404" y="830" type="line"/>
      <point x="1897" y="830" type="line"/>
      <point x="1897" y="672" type="line"/>
      <point x="404" y="672" type="line"/>
    </contour>
    <contour>
      <point x="115" y="712" type="qcurve" smooth="yes"/>
      <point x="115" y="744" type="line" smooth="yes"/>
      <point x="115" y="1080"/>
      <point x="723" y="1486"/>
      <point x="1162" y="1486" type="qcurve" smooth="yes"/>
      <point x="1601" y="1486"/>
      <point x="2208" y="1080"/>
      <point x="2208" y="744" type="qcurve" smooth="yes"/>
      <point x="2208" y="712" type="line" smooth="yes"/>
      <point x="2208" y="366"/>
      <point x="1601" y="-30"/>
      <point x="1162" y="-30" type="qcurve" smooth="yes"/>
      <point x="723" y="-30"/>
      <point x="115" y="346"/>
    </contour>
    <contour>
      <point x="741" y="712" type="line" smooth="yes"/>
      <point x="741" y="426"/>
      <point x="949" y="134"/>
      <point x="1162" y="134" type="qcurve" smooth="yes"/>
      <point x="1375" y="134"/>
      <point x="1583" y="426"/>
      <point x="1583" y="712" type="qcurve" smooth="yes"/>
      <point x="1583" y="744" type="line" smooth="yes"/>
      <point x="1583" y="1030"/>
      <point x="1380" y="1322"/>
      <point x="1162" y="1322" type="qcurve" smooth="yes"/>
      <point x="944" y="1322"/>
      <point x="741" y="1030"/>
      <point x="741" y="744" type="qcurve" smooth="yes"/>
    </contour>
  </outline>
</glyph>
<glyph name="Zhe.bgr" format="2">
  <advance width="3234"/>
  <outline>
    <contour>
      <point x="2578" y="0" type="line"/>
      <point x="2042" y="716" type="line"/>
      <point x="2411" y="1107" type="line"/>
      <point x="3254" y="0" type="line"/>
    </contour>
    <contour>
      <point x="657" y="0" type="line"/>
      <point x="-20" y="0" type="line"/>
      <point x="829" y="1107" type="line"/>
      <point x="1195" y="717" type="line"/>
    </contour>
    <contour>
      <point x="1315" y="0" type="line"/>
      <point x="1315" y="407" type="line"/>
      <point x="372" y="1456" type="line"/>
      <point x="607" y="1456" type="line"/>
      <point x="1315" y="649" type="line"/>
      <point x="1315" y="1456" type="line"/>
      <point x="1920" y="1456" type="line"/>
      <point x="1920" y="649" type="line"/>
      <point x="2628" y="1456" type="line"/>
      <point x="2860" y="1456" type="line"/>
      <point x="1920" y="410" type="line"/>
      <point x="1920" y="0" type="line"/>
    </contour>
  </outline>
</glyph>
<glyph name="commaaccentcomb.case" format="2">
  <advance width="1024"/>
  <anchor x="512" y="0" name="_bottom"/>
  <anchor x="512" y="-600" name="bottom"/>
  <outline>
    <contour>
      <point x="333" y="-597" type="line"/>
      <point x="382" y="-185" type="line"/>
      <point x="695.0" y="-185.0" type="line"/>
      <point x="508.0" y="-600.0" type="line"/>
    </contour>
  </outline>
</glyph>
<glyph name="diagonalbarO" format="2">
  <advance width="623"/>
  <outline>
    <contour>
      <point x="3" y="-145" type="line"/>
      <point x="57" y="50" type="line"/>
      <point x="75" y="45" type="line"/>
      <point x="281" y="835" type="line"/>
      <point x="389" y="767" type="line"/>
      <point x="196" y="18" type="line"/>
      <point x="216" y="14" type="line"/>
      <point x="173" y="-145" type="line"/>
    </contour>
    <contour>
      <point x="452" y="1582" type="line"/>
      <point x="623" y="1582" type="line"/>
      <point x="570" y="1388" type="line"/>
      <point x="549" y="1392" type="line"/>
      <point x="389" y="767" type="line"/>
      <point x="281" y="835" type="line"/>
      <point x="429" y="1419" type="line"/>
      <point x="409" y="1424" type="line"/>
    </contour>
  </outline>
</glyph>
<glyph name="diagonalbaro" format="2">
  <advance width="512"/>
  <outline>
    <contour>
      <point x="-88" y="-102" type="line"/>
      <point x="-4" y="105" type="line"/>
      <point x="14" y="100" type="line"/>
      <point x="215" y="600" type="line"/>
      <point x="314" y="530" type="line"/>
      <point x="131" y="71" type="line"/>
      <point x="151" y="67" type="line"/>
      <point x="77" y="-107" type="line"/>
    </contour>
    <contour>
      <point x="418" y="1160" type="line"/>
      <point x="589" y="1157" type="line"/>
      <point x="511" y="964" type="line"/>
      <point x="490" y="969" type="line"/>
      <point x="314" y="530" type="line"/>
      <point x="215" y="600" type="line"/>
      <point x="374" y="997" type="line"/>
      <point x="354" y="1003" type="line"/>
    </contour>
  </outline>
</glyph>
